<?xml version="1.0" encoding="UTF-8"?>
<svg id="Layer_2" data-name="Layer 2" xmlns="http://www.w3.org/2000/svg" viewBox="0 0 119 119">
  <defs>
    <style>
      .cls-1 {
        fill: #fff;
      }

      .cls-2 {
        fill: #1871c2;
      }
    </style>
  </defs>
  <g id="Layer_2-2" data-name="Layer 2">
    <rect class="cls-1" x="0" y="0" width="119" height="119" rx="59.5" ry="59.5"/>
    <g id="Layer_3" data-name="Layer 3">
      <path class="cls-2" d="M94.6,0H24.4C10.95,0,0,10.95,0,24.4V94.6c0,13.46,10.95,24.4,24.4,24.4H94.6c13.46,0,24.4-10.95,24.4-24.4V24.4c0-13.46-10.95-24.4-24.4-24.4ZM31.14,85.07c-1.93,0-3.49-1.56-3.49-3.49V37.42c0-1.93,1.56-3.49,3.49-3.49h8.13c1.93,0,3.49,1.56,3.49,3.49v44.16c0,1.93-1.56,3.49-3.49,3.49h-8.13Zm27.89,13.25c-7.09,0-13.83-2.21-19.56-6.28,3.04-.06,5.76-1.41,7.64-3.53,3.69,1.85,7.74,2.84,11.93,2.84,15.89,0,28.82-14.28,28.82-31.84s-12.93-31.84-28.82-31.84c-4.21,0-8.25,.98-11.93,2.83-1.87-2.11-4.57-3.45-7.59-3.52,.97-.69,1.96-1.32,2.99-1.9,5.07-2.86,10.78-4.38,16.54-4.38,19.74,0,35.79,17.41,35.79,38.81s-16.06,38.81-35.79,38.81Z"/>
    </g>
  </g>
</svg>