<?xml version="1.0" encoding="UTF-8"?>
<svg id="Layer_2" data-name="Layer 2" xmlns="http://www.w3.org/2000/svg" viewBox="0 0 313.47 119">
  <defs>
    <style>
      .cls-1 {
        fill: #fff;
      }

      .cls-2, .cls-3 {
        fill: #1871c2;
      }

      .cls-3 {
        stroke: #1871c2;
        stroke-miterlimit: 10;
        stroke-width: 2px;
      }
    </style>
  </defs>
  <g id="Layer_2-2" data-name="Layer 2">
    <rect class="cls-1" x="0" y="0" width="119" height="119" rx="59.5" ry="59.5"/>
    <g id="Layer_3" data-name="Layer 3">
      <path class="cls-2" d="M94.6,0H24.4C10.95,0,0,10.95,0,24.4V94.6c0,13.46,10.95,24.4,24.4,24.4H94.6c13.46,0,24.4-10.95,24.4-24.4V24.4c0-13.46-10.95-24.4-24.4-24.4ZM31.14,85.07c-1.93,0-3.49-1.56-3.49-3.49V37.42c0-1.93,1.56-3.49,3.49-3.49h8.13c1.93,0,3.49,1.56,3.49,3.49v44.16c0,1.93-1.56,3.49-3.49,3.49h-8.13Zm27.89,13.25c-7.09,0-13.83-2.21-19.56-6.28,3.04-.06,5.76-1.41,7.64-3.53,3.69,1.85,7.74,2.84,11.93,2.84,15.89,0,28.82-14.28,28.82-31.84s-12.93-31.84-28.82-31.84c-4.21,0-8.25,.98-11.93,2.83-1.87-2.11-4.57-3.45-7.59-3.52,.97-.69,1.96-1.32,2.99-1.9,5.07-2.86,10.78-4.38,16.54-4.38,19.74,0,35.79,17.41,35.79,38.81s-16.06,38.81-35.79,38.81Z"/>
      <path class="cls-3" d="M156.24,95.47c-3.11-3.15-4.66-7.54-4.66-13.17,0-2.32,.45-6.42,1.37-12.3,.75-4.22,1.26-7.91,1.55-11.06,.29-3.15,.43-6.58,.43-10.31,0-4.39-.12-7.95-.37-10.69-1.41,.83-2.44,1.24-3.11,1.24-1.33,0-1.99-1.49-1.99-4.47,0-2.32,.52-4.29,1.55-5.9,1.03-1.61,2.75-3.13,5.16-4.53,2.57-1.57,5.72-2.88,9.44-3.91,3.73-1.03,7.58-1.55,11.55-1.55,6.71,0,11.88,1.53,15.53,4.6,3.64,3.07,5.47,7.25,5.47,12.55,0,3.31-.7,6.38-2.11,9.19-1.41,2.82-3.4,5.3-5.96,7.45,10.35,1.66,15.53,7.62,15.53,17.89,0,5.55-1.58,10.6-4.72,15.16-3.15,4.56-7.41,8.12-12.8,10.68-5.22,2.57-10.98,3.85-17.27,3.85-6.63,0-11.49-1.57-14.6-4.72Zm33.92-12.67c3.85-2.4,5.78-5.55,5.78-9.44,0-3.15-1.14-5.49-3.42-7.02-2.28-1.53-5.11-2.3-8.51-2.3-1.33,0-2.98,.12-4.97,.37-.83,.17-1.78,.25-2.86,.25-1.82,0-3.34-.75-4.53-2.24-1.2-1.49-1.8-3.35-1.8-5.59,0-.91,.14-1.57,.43-1.99,.29-.41,.85-.75,1.68-.99,10.1-2.65,15.16-7.25,15.16-13.79,0-5.22-3.6-7.83-10.81-7.83-2.65,0-5.92,.46-9.81,1.37,0,7.95-.83,16.81-2.48,26.59-1.08,7.12-1.62,11.76-1.62,13.91,0,4.39,1.1,7.54,3.29,9.44,2.19,1.91,5.57,2.86,10.13,2.86,5.71,0,10.5-1.2,14.35-3.6Z"/>
      <path class="cls-3" d="M228.05,98.08c-1.45-1.7-2.26-4.74-2.42-9.13-.25-11.26-1.16-20.66-2.73-28.2-1.33-6.71-3.09-12.53-5.28-17.46-2.2-4.93-5.16-9.13-8.88-12.61-.83-.83-1.41-1.51-1.74-2.05-.33-.54-.5-1.14-.5-1.8,0-1.82,.93-3.52,2.8-5.09,1.86-1.57,3.99-2.36,6.4-2.36,2.82,0,5.26,1.2,7.33,3.6,2.07,2.4,3.89,5.92,5.47,10.56,4.47,11.85,6.71,27.71,6.71,47.58,0,1.82,.23,3.02,.68,3.6,.45,.58,1.35,.87,2.67,.87,3.64,0,7.25-1.47,10.81-4.41,3.56-2.94,6.46-6.73,8.7-11.37,2.24-4.64,3.35-9.32,3.35-14.04,0-3.56-.66-7.06-1.99-10.5-1.33-3.44-3.06-6.4-5.22-8.88-.66-.75-1.12-1.37-1.37-1.86-.25-.5-.37-1.03-.37-1.61,0-1.24,.52-2.48,1.55-3.73,1.03-1.24,2.26-2.3,3.66-3.17,1.41-.87,2.65-1.3,3.73-1.3,3.56,0,6.54,5.18,8.94,15.53,2.57,9.86,3.85,23.15,3.85,39.88,0,2.15,.21,3.58,.62,4.29,.41,.7,1.32,1.06,2.73,1.06,3.98,0,7.76-1.86,11.37-5.59s6.5-8.72,8.7-14.97c2.19-6.25,3.29-12.86,3.29-19.82,0-3.64-.27-6.77-.81-9.38-.54-2.61-1.18-4.58-1.93-5.9-.83-1.57-1.24-2.9-1.24-3.98,0-1.74,1.16-3.42,3.48-5.03,2.32-1.61,4.43-2.42,6.34-2.42,2.32,0,3.85,1.35,4.6,4.04,.75,2.69,1.12,6.11,1.12,10.25,0,9.77-1.66,19.98-4.97,30.62-3.31,10.64-7.89,19.53-13.73,26.65-5.84,7.12-12.28,10.68-19.32,10.68-2.9,0-5.05-.62-6.46-1.86-1.41-1.24-2.34-2.98-2.8-5.22-.46-2.24-.68-5.22-.68-8.95l.12-10.06c-3.73,8.28-8.26,14.7-13.6,19.26-5.34,4.56-10.79,6.83-16.34,6.83-2.98,0-5.2-.85-6.65-2.55Z"/>
    </g>
  </g>
</svg>